<svg width="1024" height="1024" viewBox="0 0 1024 1024" fill="none" xmlns="http://www.w3.org/2000/svg">
<rect width="1024" height="1024" fill="black"/>
<path d="M425.789 300C474.677 354.792 505.488 406.133 584.396 422.486C613.719 404.845 626.942 405.738 670.568 410.927C680.113 412.828 679.362 412.872 683 416.513C672.545 421.452 672.376 425.685 672.018 437.2C674.284 549.307 618.188 582.91 471.211 670.94C444.119 687.167 413.939 705.242 380.467 726C381.259 676.354 395.117 647.415 406.784 623.056C409.901 616.549 412.863 610.368 415.375 604.207C395.356 590.1 380.782 573.365 371.457 548.372C389.433 550.088 404.99 556.966 419.93 553.105C364.871 537.352 349.835 500.116 341 445.52C356.281 454.157 366.168 466.973 386.042 467.9C342.415 428.94 340.313 363.686 365.452 300.928C382.116 319.604 396.88 337.913 411.89 354.836C413.67 336.905 418.445 318.335 425.789 300Z" fill="white"/>
</svg>
